<?xml version="1.0" standalone="no"?>
<!DOCTYPE svg PUBLIC "-//W3C//DTD SVG 20010904//EN"
 "http://www.w3.org/TR/2001/REC-SVG-20010904/DTD/svg10.dtd">
<svg version="1.0" xmlns="http://www.w3.org/2000/svg"
 width="225.000000pt" height="225.000000pt" viewBox="0 0 225.000000 225.000000"
 preserveAspectRatio="xMidYMid meet">

<g transform="translate(0.000000,225.000000) scale(0.100000,-0.100000)"
fill="#FAFAFA" stroke="none">
<path d="M773 2026 c-52 -24 -62 -49 -59 -150 2 -81 0 -91 -21 -112 -30 -30
-31 -87 -3 -111 11 -10 28 -25 38 -33 12 -11 32 -15 60 -12 32 3 42 1 42 -11
0 -8 3 -29 6 -46 5 -24 3 -31 -9 -31 -29 0 -31 -23 -4 -46 16 -14 27 -33 27
-49 0 -14 5 -25 10 -25 6 0 10 8 10 17 0 12 3 14 10 7 8 -8 36 -2 93 18 45 16
83 30 84 32 2 2 -3 81 -12 177 -8 95 -15 179 -15 186 0 8 -12 13 -28 13 -22 0
-28 -5 -29 -22 -1 -13 -7 -24 -13 -26 -5 -2 -10 -17 -10 -33 l0 -29 -64 0
c-35 0 -81 -6 -102 -13 -22 -8 -52 -17 -67 -21 -26 -6 -28 -5 -25 21 3 31 25
45 109 67 30 8 46 15 37 15 -11 1 -18 9 -18 21 0 16 7 20 38 21 30 2 32 3 10
6 -29 5 -47 40 -32 64 5 9 -2 11 -27 7 -41 -6 -59 -1 -59 17 0 17 20 23 120
39 81 13 107 9 97 -16 -4 -12 0 -12 29 1 19 8 34 18 34 22 0 3 -19 14 -42 23
-59 24 -174 31 -215 12z m20 -199 c3 -8 -8 -17 -29 -23 -29 -10 -34 -9 -34 6
0 9 3 20 7 23 11 12 51 8 56 -6z"/>
<path d="M918 1943 c7 -3 16 -2 19 1 4 3 -2 6 -13 5 -11 0 -14 -3 -6 -6z"/>
<path d="M1252 1914 c-53 -37 -68 -130 -31 -191 21 -33 21 -35 5 -146 -9 -62
-16 -115 -16 -119 0 -8 160 -62 166 -56 2 3 13 62 24 133 19 125 20 129 54
157 61 50 69 155 17 202 -28 25 -38 14 -46 -49 -8 -65 -25 -79 -85 -69 -50 8
-62 28 -52 86 13 68 4 80 -36 52z"/>
<path d="M1702 1848 c-13 -17 -132 -221 -129 -223 1 -1 65 -35 142 -75 77 -40
144 -77 150 -81 5 -5 14 -9 21 -9 14 0 134 199 134 223 0 9 -14 24 -31 33 -31
15 -32 15 -67 -18 -26 -24 -33 -28 -28 -13 24 65 21 72 -34 100 -29 15 -61 24
-71 22 -11 -3 -19 0 -19 8 0 7 -11 20 -25 29 -29 19 -30 19 -43 4z"/>
<path d="M303 1760 c-18 -11 -33 -23 -33 -28 0 -4 10 -39 23 -78 21 -62 27
-71 63 -88 32 -15 52 -38 97 -109 l58 -90 -21 -19 c-19 -18 -19 -20 -4 -43 9
-14 19 -25 22 -25 4 0 41 12 83 27 l76 27 -15 38 c-13 33 -19 38 -48 38 -30 0
-36 7 -88 88 -49 78 -55 92 -49 126 6 35 3 41 -53 97 -32 32 -63 59 -69 59 -5
0 -25 -9 -42 -20z"/>
<path d="M738 1583 c-11 -3 -18 -14 -18 -29 0 -20 5 -24 28 -24 51 0 72 11 72
36 0 21 -5 24 -32 23 -18 -1 -41 -3 -50 -6z"/>
<path d="M1527 1551 c-24 -41 -21 -57 12 -71 16 -6 39 -23 52 -36 l23 -24 -31
-44 -30 -43 51 -16 c28 -9 52 -13 54 -9 25 70 49 81 112 52 52 -24 52 -24 67
-5 36 49 36 52 -20 83 -77 43 -264 142 -269 142 -2 0 -11 -13 -21 -29z"/>
<path d="M761 1463 c4 -32 8 -66 8 -76 1 -10 5 -16 9 -13 5 3 5 29 1 58 -4 29
-8 61 -8 71 -1 9 -5 17 -9 17 -4 0 -5 -26 -1 -57z"/>
<path d="M695 1320 l-390 -138 -3 -47 c-2 -36 0 -46 11 -43 8 1 190 55 406
118 l391 115 0 68 c0 47 -4 67 -12 66 -7 0 -188 -63 -403 -139z"/>
<path fill="fafafa" d="M810 1175 c-162 -46 -305 -86 -318 -90 l-22 -5 0 -380 0 -380 320 0
320 0 0 470 c0 259 -1 470 -2 469 -2 0 -136 -38 -298 -84z m-82 -156 c-7 -5
-23 -9 -35 -9 -21 0 -23 5 -23 54 0 51 1 53 33 62 l32 10 3 -55 c2 -36 -1 -57
-10 -62z m-90 34 c-3 -56 -4 -57 -35 -64 l-33 -6 0 54 c0 46 3 55 23 63 44 18
48 14 45 -47z m102 -117 c0 -56 -8 -66 -51 -66 -16 0 -19 7 -19 54 0 56 5 64
48 65 20 1 22 -3 22 -53z m-100 -20 c0 -47 -3 -54 -22 -60 -45 -12 -48 -8 -48
48 0 56 4 62 53 65 14 1 17 -8 17 -53z"/>
</g>
</svg>
