<?xml version="1.0" standalone="no"?>
<!DOCTYPE svg PUBLIC "-//W3C//DTD SVG 20010904//EN"
 "http://www.w3.org/TR/2001/REC-SVG-20010904/DTD/svg10.dtd">
<svg version="1.0" xmlns="http://www.w3.org/2000/svg"
 width="500.000000pt" height="500.000000pt" viewBox="0 0 500.000000 500.000000"
 preserveAspectRatio="xMidYMid meet">
<g transform="translate(0.000000,500.000000) scale(0.100000,-0.100000)"
fill="#ff3131" stroke="none">
<path d="M2290 4343 c-440 -45 -832 -196 -1176 -454 -493 -370 -820 -916 -908
-1520 -24 -163 -19 -205 9 -69 94 462 310 865 640 1196 624 623 1537 840 2375
564 799 -263 1385 -925 1555 -1760 28 -136 33 -94 9 69 -71 491 -302 949 -654
1302 -369 370 -841 599 -1370 665 -102 13 -385 17 -480 7z"/>
<path d="M1415 3363 c-110 -110 -375 -371 -590 -581 l-390 -382 181 0 182 0
408 400 c225 220 412 400 417 400 5 0 192 -180 415 -400 l407 -400 410 0 410
0 -93 93 -94 94 152 144 c83 79 154 145 159 147 5 1 119 -105 254 -238 l245
-240 339 2 338 3 -381 383 -380 384 -210 5 -209 5 -225 -226 -225 -227 -405
412 -405 412 -255 4 -255 5 -200 -199z"/>
<path fill="#383939" d="M4405 2231 c-45 -11 -69 -26 -103 -65 -45 -51 -52 -91 -52 -292 0
-174 1 -182 26 -233 31 -62 80 -98 147 -107 68 -10 147 30 185 94 26 46 27 52
30 218 3 107 -1 193 -8 228 -23 111 -124 181 -225 157z m90 -136 c25 -24 25
-26 25 -210 0 -184 0 -186 -25 -210 -33 -34 -77 -33 -104 1 -20 25 -21 40 -21
211 0 182 0 184 25 208 13 14 36 25 50 25 14 0 37 -11 50 -25z"/>
<path fill="#383939" d="M370 1885 l0 -345 60 0 60 0 0 150 0 150 100 0 100 0 0 55 0 55 -100
0 -100 0 0 80 0 80 100 0 100 0 0 60 0 60 -160 0 -160 0 0 -345z"/>
<path fill="#383939" d="M787 2224 c-4 -4 -7 -160 -7 -346 l0 -338 165 0 165 0 0 60 0 60
-105 0 -106 0 3 88 3 87 103 3 102 3 0 54 0 55 -105 0 -105 0 0 80 0 80 105 0
106 0 -3 58 -3 57 -156 3 c-85 1 -158 -1 -162 -4z"/>
<path fill="#383939" d="M1200 1885 l0 -346 58 3 57 3 3 148 3 147 35 0 c42 0 89 -23 104 -49
5 -11 10 -72 10 -135 l0 -116 61 0 61 0 -4 133 c-3 116 -6 137 -26 173 l-24
41 25 36 c54 79 43 174 -27 243 -50 50 -102 64 -241 64 l-95 0 0 -345z m255
200 c24 -24 31 -57 19 -90 -10 -25 -58 -45 -109 -45 l-45 0 0 80 0 80 55 0
c46 0 60 -4 80 -25z"/>
<path fill="#383939" d="M1677 2149 c-4 -46 -7 -202 -7 -346 l0 -263 60 0 60 0 0 151 0 152
51 -5 c38 -4 58 -12 77 -32 26 -25 27 -32 31 -146 l3 -120 54 0 54 0 0 128 c0
114 -3 134 -23 174 l-23 45 25 37 c43 65 39 168 -11 231 -40 51 -92 68 -224
73 l-121 5 -6 -84z m255 -69 c24 -24 29 -36 24 -58 -11 -47 -50 -72 -112 -72
l-54 0 0 80 0 80 56 0 c49 0 59 -4 86 -30z"/>
<path fill="#383939" d="M2150 1885 l0 -345 60 0 60 0 -2 343 -3 342 -57 3 -58 3 0 -346z"/>
<path fill="#383939" d="M2360 1885 l0 -345 55 0 55 0 0 250 c0 138 3 250 8 250 4 0 28 -32
53 -71 l46 -70 49 71 49 72 3 -251 2 -251 60 0 60 0 -2 343 -3 342 -61 3 -60
3 -44 -66 c-25 -36 -48 -65 -52 -65 -3 0 -26 28 -50 63 l-44 62 -62 3 -62 3 0
-346z"/>
<path fill="#383939" d="M2875 1991 c-9 -310 -3 -345 69 -408 91 -80 216 -62 284 40 l27 40 0
281 0 281 -55 0 -55 0 -5 -266 c-5 -244 -7 -269 -24 -288 -24 -26 -66 -27 -97
-2 l-24 19 -3 271 -3 271 -53 0 -53 0 -8 -239z"/>
<path fill="#383939" d="M3347 2224 c-4 -4 -7 -160 -7 -346 l0 -338 55 0 55 0 2 175 3 175 80
-173 81 -172 47 -3 47 -3 -2 343 -3 343 -52 3 -53 3 -2 -193 -3 -192 -81 189
-81 190 -39 3 c-22 2 -43 0 -47 -4z"/>
<path fill="#383939" d="M3800 1884 l0 -346 118 4 c136 4 181 22 229 91 l28 40 3 203 c3 188
2 205 -17 243 -42 82 -110 111 -263 111 l-98 0 0 -346z m231 213 c33 -26 39
-55 39 -207 0 -198 -15 -230 -109 -230 l-41 0 0 225 0 225 48 0 c26 0 54 -6
63 -13z"/>
<path d="M183 2145 c0 -22 2 -30 4 -17 2 12 2 30 0 40 -3 9 -5 -1 -4 -23z"/>
<path d="M4813 2135 c0 -22 2 -30 4 -17 2 12 2 30 0 40 -3 9 -5 -1 -4 -23z"/>
<path d="M2130 1220 c-487 -30 -1164 -110 -1217 -145 -32 -22 -31 -74 3 -114
30 -36 74 -42 95 -12 16 21 174 55 474 101 424 65 728 89 1200 97 418 6 705
-4 1134 -43 202 -18 287 -22 294 -15 7 7 7 14 1 20 -17 17 -480 75 -809 102
-171 14 -990 20 -1175 9z"/>
</g>
</svg>
