<?xml version="1.0" standalone="no"?>
<!DOCTYPE svg PUBLIC "-//W3C//DTD SVG 20010904//EN"
 "http://www.w3.org/TR/2001/REC-SVG-20010904/DTD/svg10.dtd">
<svg version="1.0" xmlns="http://www.w3.org/2000/svg"
 width="1200.000000pt" height="1200.000000pt" viewBox="0 0 1200.000000 1200.000000"
 preserveAspectRatio="xMidYMid meet">

<g transform="translate(0.000000,1200.000000) scale(0.100000,-0.100000)"
fill="#000000" stroke="none">
<path d="M740 11956 c601 -147 1067 -310 1386 -487 431 -239 705 -503 878
-846 82 -164 133 -314 236 -698 146 -541 301 -966 510 -1390 419 -852 1058
-1607 1825 -2153 1063 -759 2361 -1172 3675 -1172 994 0 1919 235 2646 672 92
55 104 66 104 90 0 16 -2 28 -6 28 -3 0 -40 -22 -82 -49 -429 -271 -961 -473
-1542 -586 -547 -106 -1226 -132 -1805 -69 -1097 118 -2187 544 -3052 1192
-838 627 -1477 1454 -1889 2442 -140 335 -213 556 -345 1038 -100 367 -143
490 -230 667 -90 183 -175 301 -329 456 -189 191 -377 323 -670 470 -300 151
-717 298 -1177 413 -78 20 -126 26 -205 25 l-103 0 175 -43z"/>
<path d="M1500 11983 c423 -140 673 -252 916 -408 281 -182 474 -384 603 -635
78 -153 116 -252 196 -515 196 -649 350 -1027 591 -1447 226 -395 487 -738
818 -1076 498 -507 1040 -887 1716 -1203 690 -321 1397 -517 2185 -603 437
-49 1013 -49 1445 0 533 60 1022 177 1445 346 169 68 391 174 508 243 63 37
77 50 77 70 0 14 -2 25 -4 25 -2 0 -52 -28 -112 -62 -603 -342 -1375 -547
-2248 -598 -1537 -89 -3060 340 -4261 1198 -523 374 -993 856 -1332 1367 -345
520 -544 963 -773 1722 -126 416 -189 558 -338 763 -232 317 -650 589 -1216
791 -92 33 -121 39 -185 38 l-76 -1 45 -15z"/>
<path d="M2296 11927 c445 -232 679 -474 835 -864 17 -43 66 -181 109 -308 43
-126 105 -301 139 -387 75 -190 250 -546 356 -723 384 -642 912 -1183 1590
-1628 533 -349 1171 -632 1885 -836 958 -273 2086 -344 3110 -195 573 83 1141
254 1580 474 86 43 100 54 100 75 0 24 -2 24 -127 -39 -493 -246 -1050 -399
-1778 -490 -551 -69 -1244 -67 -1805 5 -827 105 -1658 354 -2340 700 -1092
554 -1865 1306 -2355 2289 -131 262 -204 446 -330 825 -119 358 -206 528 -366
712 -115 133 -313 284 -524 402 -97 54 -116 61 -165 61 l-55 0 141 -73z"/>
<path d="M0 11925 c0 -17 7 -26 23 -30 12 -2 115 -25 229 -50 885 -192 1533
-426 1973 -712 368 -240 603 -496 765 -837 84 -174 143 -359 245 -766 150
-601 266 -959 456 -1407 486 -1143 1303 -2134 2289 -2775 815 -530 1706 -854
2635 -957 296 -33 798 -38 1110 -11 828 72 1574 317 2175 716 93 62 100 69
100 99 l0 33 -147 -98 c-234 -156 -535 -307 -818 -410 -712 -261 -1593 -362
-2400 -274 -1421 153 -2802 854 -3748 1901 -528 585 -905 1192 -1213 1955
-155 385 -256 703 -374 1183 -119 483 -170 645 -271 851 -140 287 -331 515
-609 726 -338 255 -841 485 -1440 658 -247 72 -916 230 -970 230 -6 0 -10 -11
-10 -25z"/>
<path d="M0 11715 c0 -17 7 -26 23 -30 298 -68 411 -96 610 -150 526 -144
1010 -330 1322 -509 541 -310 875 -669 1064 -1143 76 -191 120 -350 221 -793
93 -409 160 -658 262 -970 319 -982 745 -1771 1347 -2495 145 -174 522 -556
695 -704 890 -759 1971 -1243 3061 -1371 729 -86 1472 -21 2135 186 407 128
821 332 1144 564 109 78 116 85 116 117 l0 35 -47 -36 c-729 -554 -1666 -846
-2714 -846 -296 0 -449 10 -716 46 -921 123 -1856 514 -2631 1098 -1130 853
-1927 2052 -2398 3606 -59 194 -98 345 -265 1035 -115 472 -249 792 -441 1047
-180 238 -479 489 -793 665 -329 185 -784 363 -1265 497 -171 47 -695 176
-717 176 -7 0 -13 -11 -13 -25z"/>
<path d="M2 11507 c3 -31 3 -31 118 -59 391 -97 707 -190 1005 -298 228 -82
363 -140 570 -245 490 -247 836 -534 1075 -892 203 -304 303 -575 430 -1163
92 -426 155 -696 211 -906 340 -1275 859 -2320 1585 -3188 548 -656 1251
-1206 2004 -1569 875 -421 1780 -590 2695 -502 856 82 1636 383 2238 863 59
48 67 58 67 88 0 19 -3 34 -6 34 -4 0 -30 -19 -58 -43 -401 -338 -964 -616
-1545 -762 -243 -60 -456 -97 -751 -127 -190 -20 -737 -17 -925 5 -904 105
-1757 439 -2539 995 -307 218 -676 543 -920 811 -773 846 -1315 1824 -1689
3051 -115 378 -170 596 -282 1120 -68 317 -111 492 -164 666 -166 540 -425
909 -876 1249 -458 345 -1068 600 -2018 845 l-228 59 3 -32z"/>
<path d="M2 11298 l3 -31 175 -47 c896 -241 1518 -513 1985 -869 120 -91 353
-315 443 -426 137 -170 281 -415 360 -615 95 -240 154 -470 271 -1057 122
-608 207 -955 342 -1395 480 -1565 1256 -2828 2274 -3702 404 -347 785 -601
1235 -825 957 -475 1965 -625 2950 -441 702 132 1268 384 1810 806 138 107
152 124 148 164 l-3 33 -90 -78 c-673 -579 -1585 -914 -2565 -942 -761 -21
-1516 154 -2255 524 -1029 514 -1931 1382 -2582 2483 -348 589 -621 1212 -847
1935 -148 474 -229 801 -361 1460 -102 504 -145 685 -220 904 -97 285 -206
498 -360 701 -277 365 -618 638 -1106 885 -389 197 -860 365 -1497 534 l-113
30 3 -31z"/>
<path d="M2 11089 l3 -32 201 -58 c986 -281 1617 -595 2101 -1045 362 -336
588 -725 749 -1284 54 -188 91 -360 183 -845 82 -429 138 -691 215 -1005 334
-1367 877 -2579 1564 -3495 519 -691 1135 -1256 1817 -1667 158 -95 496 -268
660 -336 450 -189 937 -309 1380 -342 83 -5 173 -12 201 -15 86 -8 505 14 671
35 369 47 712 135 1028 262 448 182 777 383 1139 698 83 73 86 76 86 118 l0
44 -92 -84 c-634 -576 -1444 -920 -2356 -999 -179 -15 -678 -6 -832 15 -179
25 -338 54 -457 82 -570 134 -1149 394 -1673 751 -1322 902 -2305 2358 -2895
4288 -174 568 -273 996 -435 1870 -177 955 -372 1400 -815 1854 -483 495
-1140 840 -2186 1146 -123 36 -232 68 -242 71 -16 5 -18 1 -15 -27z"/>
<path d="M0 10878 c0 -34 0 -34 78 -56 390 -114 812 -267 1117 -407 729 -334
1256 -785 1564 -1339 196 -354 310 -730 441 -1456 101 -559 128 -705 181 -955
288 -1374 727 -2560 1312 -3540 585 -982 1333 -1770 2187 -2305 545 -342 1165
-578 1731 -660 238 -34 395 -43 699 -37 234 4 316 10 458 31 404 60 753 161
1117 323 359 161 741 419 1038 702 74 71 77 76 77 119 l0 45 -82 -79 c-357
-341 -722 -584 -1159 -770 -334 -142 -722 -246 -1089 -291 -205 -25 -717 -25
-914 0 -793 100 -1536 417 -2269 965 -445 334 -915 814 -1290 1317 -782 1049
-1348 2375 -1721 4031 -55 243 -118 573 -186 964 -120 695 -196 1002 -331
1332 -214 522 -600 974 -1129 1321 -420 275 -965 515 -1615 712 -104 32 -196
60 -202 62 -9 4 -13 -6 -13 -29z"/>
</g>
</svg>
