<?xml version="1.0" standalone="no"?>
<!DOCTYPE svg PUBLIC "-//W3C//DTD SVG 20010904//EN"
 "http://www.w3.org/TR/2001/REC-SVG-20010904/DTD/svg10.dtd">
<svg version="1.0" xmlns="http://www.w3.org/2000/svg"
 width="840.000000pt" height="423.000000pt" viewBox="0 0 840.000000 423.000000"
 preserveAspectRatio="xMidYMid meet">

<g transform="translate(0.000000,423.000000) scale(0.100000,-0.100000)"
fill="#FAFAFA" stroke="none">
<path d="M3445 3459 c-412 -192 -839 -391 -947 -441 -167 -77 -199 -95 -209
-119 -9 -24 -9 -33 5 -53 8 -14 25 -27 36 -31 14 -4 292 121 954 429 513 240
937 436 940 436 4 0 240 -122 524 -271 284 -150 692 -364 906 -476 419 -220
437 -227 464 -171 25 53 11 65 -242 198 l-236 124 6 225 7 226 -26 23 c-23 22
-36 24 -180 29 l-155 6 -26 -26 c-25 -25 -26 -30 -26 -147 0 -66 -3 -120 -6
-120 -7 0 -892 463 -940 491 -17 11 -47 19 -65 19 -23 0 -271 -111 -784 -351z"/>
<path d="M3745 3025 c-251 -48 -445 -85 -931 -175 -161 -29 -200 -44 -233 -86
-51 -65 -50 -85 14 -419 8 -38 42 -218 75 -400 34 -181 68 -344 75 -360 15
-39 64 -80 110 -95 29 -10 55 -9 135 5 54 10 101 23 103 29 21 49 192 450 261
610 47 109 86 203 86 209 0 5 -12 35 -27 66 -24 47 -28 69 -28 136 0 89 20
142 78 203 32 34 125 88 134 78 3 -3 -13 -49 -36 -103 -22 -54 -41 -103 -41
-109 0 -6 27 -45 60 -87 l60 -75 43 5 c90 10 152 24 163 36 6 6 28 54 49 105
21 50 41 92 45 92 11 0 40 -105 40 -148 0 -119 -93 -242 -209 -278 -46 -14
-66 -26 -76 -44 -7 -14 -70 -162 -139 -330 -70 -168 -134 -310 -142 -316 -7
-6 -59 -19 -114 -28 l-100 -18 0 -497 0 -496 23 -40 c12 -22 40 -50 62 -62 40
-23 44 -23 365 -20 l325 2 11 115 c7 63 12 140 13 170 l0 55 -87 42 c-48 23
-97 45 -110 48 -21 6 -23 11 -20 68 l3 62 298 3 297 2 0 -62 -1 -63 -99 -50
-100 -49 0 -61 c0 -33 7 -107 15 -165 8 -58 15 -108 15 -112 0 -5 133 -8 296
-8 280 0 298 1 333 21 20 11 48 36 61 56 l25 37 0 430 0 430 -190 33 c-104 18
-271 46 -370 63 -253 43 -273 48 -312 83 -35 31 -63 75 -63 100 0 11 39 22
148 41 181 33 223 48 261 92 60 68 61 61 -39 590 -103 550 -111 587 -137 622
-64 86 -110 88 -478 17z m147 -1612 l1 -38 4 38 c4 32 8 37 29 37 23 0 24 -3
26 -62 l2 -63 3 63 4 62 134 0 c133 0 135 0 136 -22 l2 -23 4 23 c4 18 11 22
44 22 31 0 47 -7 70 -29 l29 -29 0 -131 0 -131 -297 2 -298 3 0 133 0 134 28
24 c15 13 39 24 53 24 21 0 24 -5 26 -37z m493 -363 l0 -45 -300 0 -300 0 -3
33 c-6 66 -22 63 305 60 l298 -3 0 -45z"/>
<path d="M3479 2180 c-9 -5 -67 -129 -128 -275 -109 -257 -112 -267 -97 -291
18 -27 57 -32 76 -9 23 28 228 527 223 544 -3 10 -16 24 -29 30 -29 13 -25 13
-45 1z"/>
</g>
</svg>
