<?xml version="1.0" standalone="no"?>
<!DOCTYPE svg PUBLIC "-//W3C//DTD SVG 20010904//EN"
 "http://www.w3.org/TR/2001/REC-SVG-20010904/DTD/svg10.dtd">
<svg version="1.0" xmlns="http://www.w3.org/2000/svg"
 width="500.000000pt" height="500.000000pt" viewBox="0 0 500.000000 500.000000"
 preserveAspectRatio="xMidYMid meet">

<g transform="translate(0.000000,500.000000) scale(0.100000,-0.100000)"
fill="#000000" stroke="none">
<path fill="#CB1313" d="M745 4736 c-16 -7 -41 -26 -55 -41 l-25 -27 0 -793 0 -793 25 -27
c50 -54 56 -55 500 -55 225 0 410 1 410 3 0 2 -20 94 -45 205 -50 224 -53 260
-27 292 16 20 17 29 8 71 -6 27 -16 52 -21 57 -6 5 -119 46 -253 92 -279 95
-280 96 -306 212 -32 141 -32 144 2 178 18 18 41 30 56 30 29 0 30 4 15 66
-11 41 -10 48 7 64 14 13 149 47 469 119 248 56 460 101 472 101 30 0 38 -17
68 -150 29 -129 30 -144 12 -158 -14 -12 -900 -212 -940 -212 -30 0 -36 7 -52
69 -10 40 -14 46 -36 43 -13 -2 -27 -7 -32 -11 -12 -12 32 -187 51 -203 9 -8
127 -52 262 -97 135 -46 250 -87 256 -92 7 -5 17 -39 24 -75 11 -56 16 -67 42
-80 16 -8 34 -26 40 -39 6 -13 34 -127 62 -252 l51 -228 245 -3 c238 -2 246
-2 290 20 85 43 80 -10 80 859 l0 766 -23 34 c-48 72 -5 69 -847 69 -607 -1
-761 -3 -785 -14z"/>
<path fill="#CB1313" d="M2680 2793 c-19 -10 -45 -33 -57 -52 l-23 -34 2 -783 3 -782 25 -27
c48 -53 64 -55 399 -55 l309 0 6 313 c7 369 9 394 42 409 23 11 24 15 24 121
0 112 -17 237 -32 237 -4 0 -17 20 -28 44 -31 64 -61 88 -119 94 -39 3 -57 0
-84 -17 -47 -29 -142 -30 -157 -2 -14 28 -13 194 2 209 19 19 119 15 163 -8
53 -27 75 -25 145 10 51 26 71 30 137 30 160 0 243 -41 384 -188 108 -112 179
-211 179 -249 0 -40 -32 -27 -121 49 -118 100 -198 158 -219 158 -10 0 -28
-20 -44 -50 -15 -28 -36 -58 -46 -68 -22 -21 -31 -74 -36 -233 -5 -121 -4
-127 15 -132 12 -3 25 -16 30 -29 19 -51 34 -334 27 -516 l-7 -183 323 3 c359
3 357 3 398 71 19 31 20 56 20 802 0 746 -1 771 -20 802 -44 72 12 68 -840 71
-714 2 -767 1 -800 -15z"/>

</g>
</svg>
