<svg version="1.1" id="Layer_1" xmlns="http://www.w3.org/2000/svg" xmlns:xlink="http://www.w3.org/1999/xlink" x="0px" y="0px"
	 width="100%" viewBox="0 0 512 512" enable-background="new 0 0 512 512" xml:space="preserve">
<path fill="#ffffff" stroke="none" 
	d="
M254.000000,1.000003 
	C340.301361,1.000000 426.602692,1.000000 512.952026,1.000000 
	C512.952026,171.571426 512.952026,342.142853 512.952026,513.000000 
	C379.644806,513.000000 246.289383,513.000000 112.144745,512.755737 
	C111.759079,511.986298 112.109528,511.408081 112.573746,510.943634 
	C141.185150,482.315674 169.777481,453.668457 198.512527,425.165131 
	C199.897522,423.791351 202.545486,423.094025 204.608109,423.088287 
	C246.752991,422.970703 288.899658,423.177399 331.042267,422.847290 
	C339.274750,422.782837 347.683197,421.504608 355.679077,419.478333 
	C377.264618,414.008301 395.687256,402.632263 411.409576,387.011841 
	C442.725189,355.899170 473.858246,324.602753 505.149231,293.465149 
	C506.264130,292.355682 508.254730,292.126221 509.837219,291.486633 
	C498.792786,280.462769 488.059845,274.859680 475.174316,272.872070 
	C454.715424,269.716217 436.980865,274.950378 422.267456,289.336761 
	C403.092438,308.085602 384.440277,327.369324 365.255768,346.108185 
	C355.855438,355.290131 344.311554,360.617157 331.175171,361.607727 
	C345.119202,355.583557 350.571747,344.885071 350.035858,330.366364 
	C349.501221,315.882019 337.123810,303.027924 322.512878,303.016388 
	C269.711060,302.974731 216.908798,303.109589 164.107529,302.935486 
	C147.541443,302.880890 133.800522,308.758209 122.142738,320.320251 
	C91.082802,351.125000 59.933117,381.839264 28.819866,412.590240 
	C21.044630,420.275024 13.272204,427.962616 5.396146,435.750092 
	C7.086401,437.457306 8.116818,438.793884 9.418898,439.766937 
	C20.831305,448.295044 32.259708,456.802673 43.752079,465.222534 
	C49.730114,469.602325 55.846451,473.793365 62.038883,478.386841 
	C74.118874,487.469391 86.106903,496.172424 97.970848,505.041382 
	C101.173805,507.435760 104.000565,510.333374 107.000000,513.000000 
	C71.684341,513.000000 36.368687,513.000000 1.026514,513.000000 
	C1.026514,342.436401 1.026514,171.872772 1.026514,1.000000 
	C84.021759,1.000000 167.043900,1.000000 250.874680,1.263524 
	C237.371368,30.577261 223.096329,59.645885 208.642883,88.625526 
	C207.888153,90.138794 205.739655,91.568954 204.027069,91.885445 
	C196.995758,93.184853 189.873962,93.985573 182.800278,95.066727 
	C170.107178,97.006752 157.435883,99.091660 144.734741,100.976318 
	C131.902878,102.880379 119.045876,104.614922 105.409248,106.535042 
	C106.826080,108.094856 107.814011,109.301811 108.922852,110.384995 
	C121.863235,123.026070 134.798920,135.672134 147.783981,148.267227 
	C155.869400,156.109848 163.813263,164.121185 172.250717,171.569641 
	C177.360641,176.080627 179.233673,180.290619 177.519470,187.471542 
	C174.210663,201.332214 172.426208,215.556381 169.998535,229.627899 
	C168.123154,240.498184 166.189041,251.358521 164.363113,262.237061 
	C163.439789,267.737976 162.698273,273.269409 161.696335,279.980865 
	C192.908783,263.597015 222.925278,247.840942 253.096298,232.410034 
	C270.974884,241.863510 288.729706,250.932739 306.410980,260.143188 
	C316.332001,265.311188 326.117310,270.739166 335.995941,275.989471 
	C338.318665,277.223938 340.771454,278.213715 343.613983,279.523163 
	C343.154144,276.414246 342.878113,274.208191 342.496124,272.020691 
	C340.011749,257.794434 337.497498,243.573425 335.006622,229.348312 
	C332.740601,216.407135 330.680023,203.426208 328.162170,190.534409 
	C326.738525,183.244919 327.004547,177.542282 333.358154,171.777069 
	C349.338226,157.276764 364.421844,141.787460 379.838898,126.668228 
	C386.552551,120.084251 393.202698,113.435509 400.269135,106.432182 
	C396.035614,105.874893 392.674652,105.472557 389.326324,104.983780 
	C381.119446,103.785751 372.920776,102.531837 364.714417,101.330070 
	C354.729034,99.867767 344.745911,98.387291 334.749420,97.004242 
	C324.421051,95.575279 314.083771,94.206474 303.738190,92.908310 
	C299.535797,92.380989 297.379059,90.089767 295.535828,86.251442 
	C288.017609,70.595810 279.929779,55.214901 272.286011,39.618008 
	C266.018646,26.829639 260.082794,13.878819 254.000000,1.000003 
z"/>
<path fill="#FFBB99" opacity="1.000000" stroke="none" 
	d="
M331.094208,361.954346 
	C344.311554,360.617157 355.855438,355.290131 365.255768,346.108185 
	C384.440277,327.369324 403.092438,308.085602 422.267456,289.336761 
	C436.980865,274.950378 454.715424,269.716217 475.174316,272.872070 
	C488.059845,274.859680 498.792786,280.462769 509.837219,291.486633 
	C508.254730,292.126221 506.264130,292.355682 505.149231,293.465149 
	C473.858246,324.602753 442.725189,355.899170 411.409576,387.011841 
	C395.687256,402.632263 377.264618,414.008301 355.679077,419.478333 
	C347.683197,421.504608 339.274750,422.782837 331.042267,422.847290 
	C288.899658,423.177399 246.752991,422.970703 204.608109,423.088287 
	C202.545486,423.094025 199.897522,423.791351 198.512527,425.165131 
	C169.777481,453.668457 141.185150,482.315674 112.573746,510.943634 
	C112.109528,511.408081 111.759079,511.986298 111.677757,512.755737 
	C110.611107,513.000000 109.222221,513.000000 107.416656,513.000000 
	C104.000565,510.333374 101.173805,507.435760 97.970848,505.041382 
	C86.106903,496.172424 74.118874,487.469391 62.337265,478.223816 
	C63.953823,476.378052 65.450096,475.052063 66.861534,473.641205 
	C102.217438,438.299896 137.610992,402.995880 172.837753,367.526245 
	C176.195679,364.145172 179.546494,362.888428 184.231461,362.907104 
	C224.723129,363.068512 265.215851,363.058319 305.707886,362.952545 
	C314.170807,362.930420 322.632141,362.302887 331.094208,361.954346 
z"/>
<path fill="#FFDF40" opacity="1.000000" stroke="none" 
	d="
M252.941772,232.084869 
	C222.925278,247.840942 192.908783,263.597015 161.696335,279.980865 
	C162.698273,273.269409 163.439789,267.737976 164.363113,262.237061 
	C166.189041,251.358521 168.123154,240.498184 169.998535,229.627899 
	C172.426208,215.556381 174.210663,201.332214 177.519470,187.471542 
	C179.233673,180.290619 177.360641,176.080627 172.250717,171.569641 
	C163.813263,164.121185 155.869400,156.109848 147.783981,148.267227 
	C134.798920,135.672134 121.863235,123.026070 108.922852,110.384995 
	C107.814011,109.301811 106.826080,108.094856 105.409248,106.535042 
	C119.045876,104.614922 131.902878,102.880379 144.734741,100.976318 
	C157.435883,99.091660 170.107178,97.006752 182.800278,95.066727 
	C189.873962,93.985573 196.995758,93.184853 204.027069,91.885445 
	C205.739655,91.568954 207.888153,90.138794 208.642883,88.625526 
	C223.096329,59.645885 237.371368,30.577261 251.341660,1.263524 
	C251.444443,1.000000 251.888901,1.000000 252.664703,1.468654 
	C252.977951,78.653160 252.959869,155.369019 252.941772,232.084869 
z"/>
<path fill="#FFBE40" opacity="1.000000" stroke="none" 
	d="
M253.096298,232.410034 
	C252.959869,155.369019 252.977951,78.653160 252.998016,1.468654 
	C253.000000,1.000000 253.500000,1.000000 253.750000,1.000003 
	C260.082794,13.878819 266.018646,26.829639 272.286011,39.618008 
	C279.929779,55.214901 288.017609,70.595810 295.535828,86.251442 
	C297.379059,90.089767 299.535797,92.380989 303.738190,92.908310 
	C314.083771,94.206474 324.421051,95.575279 334.749420,97.004242 
	C344.745911,98.387291 354.729034,99.867767 364.714417,101.330070 
	C372.920776,102.531837 381.119446,103.785751 389.326324,104.983780 
	C392.674652,105.472557 396.035614,105.874893 400.269135,106.432182 
	C393.202698,113.435509 386.552551,120.084251 379.838898,126.668228 
	C364.421844,141.787460 349.338226,157.276764 333.358154,171.777069 
	C327.004547,177.542282 326.738525,183.244919 328.162170,190.534409 
	C330.680023,203.426208 332.740601,216.407135 335.006622,229.348312 
	C337.497498,243.573425 340.011749,257.794434 342.496124,272.020691 
	C342.878113,274.208191 343.154144,276.414246 343.613983,279.523163 
	C340.771454,278.213715 338.318665,277.223938 335.995941,275.989471 
	C326.117310,270.739166 316.332001,265.311188 306.410980,260.143188 
	C288.729706,250.932739 270.974884,241.863510 253.096298,232.410034 
z"/>
<path fill="#FFD9B3" opacity="1.000000" stroke="none" 
	d="
M331.175171,361.607697 
	C322.632141,362.302887 314.170807,362.930420 305.707886,362.952545 
	C265.215851,363.058319 224.723129,363.068512 184.231461,362.907104 
	C179.546494,362.888428 176.195679,364.145172 172.837753,367.526245 
	C137.610992,402.995880 102.217438,438.299896 66.861534,473.641205 
	C65.450096,475.052063 63.953823,476.378052 62.198692,477.906616 
	C55.846451,473.793365 49.730114,469.602325 43.752079,465.222534 
	C32.259708,456.802673 20.831305,448.295044 9.418898,439.766937 
	C8.116818,438.793884 7.086401,437.457306 5.396146,435.750092 
	C13.272204,427.962616 21.044630,420.275024 28.819866,412.590240 
	C59.933117,381.839264 91.082802,351.125000 122.142738,320.320251 
	C133.800522,308.758209 147.541443,302.880890 164.107529,302.935486 
	C216.908798,303.109589 269.711060,302.974731 322.512878,303.016388 
	C337.123810,303.027924 349.501221,315.882019 350.035858,330.366364 
	C350.571747,344.885071 345.119202,355.583557 331.175171,361.607697 
z"/>
</svg>